<svg xmlns="http://www.w3.org/2000/svg" xmlns:xlink="http://www.w3.org/1999/xlink" width="200" zoomAndPan="magnify" viewBox="0 0 150 37.5" height="50" preserveAspectRatio="xMidYMid meet" version="1.0"><defs><g/><clipPath id="9dbd604a09"><path d="M 6 3.699219 L 30.59375 3.699219 L 30.59375 35.527344 L 6 35.527344 Z M 6 3.699219 " clip-rule="nonzero"/></clipPath><clipPath id="50f5fa12d9"><path d="M 4.6875 7 L 11 7 L 11 12 L 4.6875 12 Z M 4.6875 7 " clip-rule="nonzero"/></clipPath><clipPath id="8637f4f43f"><path d="M 128.4375 6.21875 L 135.839844 6.21875 L 135.839844 13.617188 L 128.4375 13.617188 Z M 128.4375 6.21875 " clip-rule="nonzero"/></clipPath></defs><g clip-path="url(#9dbd604a09)"><path fill="#0a9a73" d="M 30.765625 35.277344 L 24.199219 25.5625 L 30.230469 16.238281 L 25.707031 16.238281 L 21.800781 22.015625 L 16.9375 14.820312 C 18.292969 14.566406 19.324219 13.96875 20.027344 13.015625 C 20.734375 12.070312 21.089844 10.914062 21.089844 9.558594 C 21.089844 8.4375 20.894531 7.503906 20.507812 6.75 C 20.117188 6 19.59375 5.40625 18.9375 4.960938 C 18.273438 4.519531 17.511719 4.203125 16.636719 4.015625 C 15.757812 3.824219 14.832031 3.730469 13.859375 3.730469 L 6.421875 3.730469 L 6.421875 22.925781 L 10.648438 22.925781 L 10.648438 15.253906 L 12.738281 15.253906 L 19.40625 25.5625 L 12.84375 35.277344 L 17.914062 35.277344 L 21.808594 29.265625 L 25.695312 35.277344 Z M 16.359375 10.757812 C 16.128906 11.046875 15.847656 11.261719 15.507812 11.394531 C 15.164062 11.527344 14.78125 11.609375 14.351562 11.640625 C 13.929688 11.664062 13.523438 11.679688 13.148438 11.679688 L 10.648438 11.679688 L 10.648438 7.3125 L 13.410156 7.3125 C 13.789062 7.3125 14.179688 7.339844 14.578125 7.394531 C 14.976562 7.453125 15.328125 7.554688 15.636719 7.703125 C 15.949219 7.855469 16.199219 8.082031 16.394531 8.367188 C 16.597656 8.65625 16.691406 9.042969 16.691406 9.535156 C 16.699219 10.0625 16.585938 10.46875 16.359375 10.757812 Z M 16.359375 10.757812 " fill-opacity="1" fill-rule="nonzero"/></g><g clip-path="url(#50f5fa12d9)"><path fill="#d46460" d="M 5.746094 7.710938 C 6.054688 7.558594 6.410156 7.453125 6.808594 7.402344 C 7.203125 7.34375 7.59375 7.320312 7.972656 7.320312 L 10.738281 7.320312 L 10.738281 11.683594 L 8.238281 11.683594 C 7.859375 11.683594 7.457031 11.671875 7.035156 11.648438 C 6.613281 11.621094 6.226562 11.539062 5.878906 11.402344 C 5.539062 11.269531 5.25 11.054688 5.027344 10.761719 C 4.800781 10.46875 4.6875 10.0625 4.6875 9.539062 C 4.6875 9.054688 4.789062 8.664062 4.984375 8.371094 C 5.1875 8.082031 5.4375 7.863281 5.746094 7.710938 Z M 5.746094 7.710938 " fill-opacity="1" fill-rule="nonzero"/></g><g fill="#d46460" fill-opacity="1"><g transform="translate(30.791667, 34.950463)"><g><path d="M 23.625 0 L 5.625 0 C 4.800781 0 4.046875 -0.195312 3.359375 -0.59375 C 2.671875 -1 2.125 -1.546875 1.71875 -2.234375 C 1.320312 -2.921875 1.125 -3.675781 1.125 -4.5 L 1.125 -22.5 L 5.625 -22.5 L 5.625 -4.5 L 23.625 -4.5 Z M 23.625 0 "/></g></g></g><g fill="#d46460" fill-opacity="1"><g transform="translate(55.541735, 34.950463)"><g><path d="M 19.125 -13.5 L 19.125 -22.5 L 23.625 -22.5 L 23.625 -4.5 C 23.625 -3.675781 23.421875 -2.921875 23.015625 -2.234375 C 22.617188 -1.546875 22.078125 -1 21.390625 -0.59375 C 20.703125 -0.195312 19.945312 0 19.125 0 L 1.125 0 L 1.125 -4.5 L 19.125 -4.5 L 19.125 -9 L 5.625 -9 C 4.800781 -9 4.046875 -9.195312 3.359375 -9.59375 C 2.671875 -10 2.125 -10.546875 1.71875 -11.234375 C 1.320312 -11.921875 1.125 -12.675781 1.125 -13.5 L 1.125 -22.5 L 5.625 -22.5 L 5.625 -13.5 Z M 19.125 -13.5 "/></g></g></g><g fill="#d46460" fill-opacity="1"><g transform="translate(80.291804, 34.950463)"><g><path d="M 23.625 -22.5 L 23.625 -18 L 14.625 -18 L 14.625 0 L 10.125 0 L 10.125 -18 L 1.125 -18 L 1.125 -22.5 Z M 23.625 -22.5 "/></g></g></g><g fill="#d46460" fill-opacity="1"><g transform="translate(105.041872, 34.950463)"><g><path d="M 23.625 -22.5 L 23.625 -18 L 5.625 -18 L 5.625 -13.5 L 23.625 -13.5 L 23.625 -9 L 5.625 -9 L 5.625 -4.5 L 23.625 -4.5 L 23.625 0 L 5.625 0 C 4.800781 0 4.046875 -0.195312 3.359375 -0.59375 C 2.671875 -1 2.125 -1.546875 1.71875 -2.234375 C 1.320312 -2.921875 1.125 -3.675781 1.125 -4.5 L 1.125 -18 C 1.125 -18.820312 1.320312 -19.578125 1.71875 -20.265625 C 2.125 -20.953125 2.671875 -21.492188 3.359375 -21.890625 C 4.046875 -22.296875 4.800781 -22.5 5.625 -22.5 Z M 23.625 -22.5 "/></g></g></g><g clip-path="url(#8637f4f43f)"><path fill="#0a9a73" d="M 132.601562 9.203125 C 132.601562 9.296875 132.574219 9.382812 132.519531 9.453125 C 132.460938 9.527344 132.386719 9.574219 132.300781 9.589844 C 132.140625 9.625 132.039062 9.644531 131.980469 9.644531 L 131.4375 9.644531 L 131.4375 8.773438 L 132 8.773438 C 132.226562 8.773438 132.382812 8.8125 132.46875 8.886719 C 132.558594 8.960938 132.601562 9.066406 132.601562 9.203125 Z M 135.90625 9.953125 C 135.90625 12.015625 134.234375 13.6875 132.171875 13.6875 C 130.109375 13.6875 128.4375 12.015625 128.4375 9.953125 C 128.4375 7.890625 130.109375 6.21875 132.171875 6.21875 C 134.234375 6.21875 135.90625 7.890625 135.90625 9.953125 Z M 133.953125 11.792969 L 133.421875 10.769531 C 133.398438 10.71875 133.34375 10.640625 133.265625 10.542969 C 133.1875 10.445312 133.128906 10.382812 133.085938 10.355469 C 133.027344 10.3125 132.929688 10.265625 132.796875 10.222656 L 132.628906 10.164062 L 132.800781 10.125 C 132.96875 10.085938 133.101562 10.039062 133.199219 9.980469 C 133.347656 9.890625 133.464844 9.773438 133.550781 9.628906 C 133.632812 9.484375 133.675781 9.308594 133.675781 9.109375 C 133.675781 8.882812 133.621094 8.683594 133.511719 8.527344 C 133.402344 8.367188 133.253906 8.257812 133.074219 8.199219 C 132.890625 8.140625 132.617188 8.109375 132.261719 8.109375 L 130.363281 8.109375 L 130.363281 11.792969 L 131.4375 11.792969 L 131.4375 10.257812 L 131.589844 10.257812 C 131.707031 10.257812 131.8125 10.289062 131.90625 10.355469 C 131.976562 10.40625 132.050781 10.507812 132.132812 10.664062 L 132.742188 11.792969 Z M 133.953125 11.792969 " fill-opacity="1" fill-rule="nonzero"/></g></svg>