<svg xmlns="http://www.w3.org/2000/svg" xmlns:xlink="http://www.w3.org/1999/xlink" viewBox="0,0,256,256" width="80px" height="80px" fill-rule="nonzero"><g fill="#0a9a73" fill-rule="nonzero" stroke="none" strokeWidth="1" strokeLinecap="butt" strokeLinejoin="miter" stroke-miterlimit="10" stroke-dasharray="" stroke-dashoffset="0" font-family="none" font-weight="none" font-size="none" text-anchor="none" style="mix-blend-mode: normal"><g transform="scale(3.2,3.2)"><path d="M11,16c-2.74952,0 -5,2.25048 -5,5v38c0,2.74952 2.25048,5 5,5h40.56055c3.68356,12.7842 12.65963,15.8023 13.13672,15.95313c0.099,0.031 0.20073,0.04688 0.30273,0.04688c0.102,0 0.20278,-0.01687 0.30078,-0.04687c0.601,-0.19 14.69922,-4.91195 14.69922,-28.00195c0,-0.553 -0.448,-1 -1,-1c-1.78344,0 -3.46303,-0.1573 -5,-0.39258v-29.55859c0,-2.74952 -2.25048,-5 -5,-5zM11,18h58c1.66848,0 3,1.33152 3,3v5h-64v-5c0,-1.66848 1.33152,-3 3,-3zM8,30h64v20.18164c-3.93408,-0.8375 -6.52162,-2.06095 -6.56055,-2.08008c-0.277,-0.135 -0.60186,-0.137 -0.88086,0c-0.058,0.029 -5.88155,2.84766 -13.56055,2.84766c-0.552,0 -1,0.448 -1,1c0,3.84055 0.39771,7.16284 1.05078,10.05078h-40.04883c-1.66848,0 -3,-1.33152 -3,-3zM12,35c-0.55228,0 -1,0.44772 -1,1c0,0.55228 0.44772,1 1,1c0.55228,0 1,-0.44772 1,-1c0,-0.55228 -0.44772,-1 -1,-1zM16,35c-0.55228,0 -1,0.44772 -1,1c0,0.55228 0.44772,1 1,1c0.55228,0 1,-0.44772 1,-1c0,-0.55228 -0.44772,-1 -1,-1zM20,35c-0.55228,0 -1,0.44772 -1,1c0,0.55228 0.44772,1 1,1c0.55228,0 1,-0.44772 1,-1c0,-0.55228 -0.44772,-1 -1,-1zM24,35c-0.55228,0 -1,0.44772 -1,1c0,0.55228 0.44772,1 1,1c0.55228,0 1,-0.44772 1,-1c0,-0.55228 -0.44772,-1 -1,-1zM28,35c-0.55228,0 -1,0.44772 -1,1c0,0.55228 0.44772,1 1,1c0.55228,0 1,-0.44772 1,-1c0,-0.55228 -0.44772,-1 -1,-1zM32,35c-0.55228,0 -1,0.44772 -1,1c0,0.55228 0.44772,1 1,1c0.55228,0 1,-0.44772 1,-1c0,-0.55228 -0.44772,-1 -1,-1zM36,35c-0.55228,0 -1,0.44772 -1,1c0,0.55228 0.44772,1 1,1c0.55228,0 1,-0.44772 1,-1c0,-0.55228 -0.44772,-1 -1,-1zM65,50.10156c1.481,0.655 6.48523,2.64198 12.99023,2.83398c-0.354,19.164 -10.99023,24.22095 -12.99023,25.00195c-2,-0.781 -12.63623,-5.83795 -12.99023,-25.00195c6.505,-0.192 11.50923,-2.17898 12.99023,-2.83398zM74.08789,56.00391c-0.555,-0.051 -1.03699,0.3582 -1.08398,0.9082l-0.00977,0.11719c-0.039,0.551 0.37673,1.03131 0.92773,1.07031c0.024,0.001 0.04631,0.00195 0.07031,0.00195c0.52,0 0.96005,-0.40369 0.99805,-0.92969l0.00586,-0.08594c0.048,-0.55 -0.3582,-1.03403 -0.9082,-1.08203zM73.16016,60.19336c-0.38709,0.0787 -0.72041,0.39292 -0.81641,0.79492c-0.128,0.537 0.20719,1.05459 0.74219,1.18359c0.076,0.018 0.15156,0.02734 0.22656,0.02734c0.455,0 0.87238,-0.32516 0.98438,-0.78516c0.001,-0.002 0.01462,-0.0605 0.01563,-0.0625c0.126,-0.537 -0.21691,-1.02534 -0.75391,-1.15234c-0.134,-0.03175 -0.26941,-0.03209 -0.39844,-0.00586zM72.03125,64.08203c-0.38977,-0.00497 -0.76394,0.22011 -0.92969,0.59961l-0.04297,0.09961c-0.218,0.508 0.01744,1.0955 0.52344,1.3125c0.129,0.056 0.26353,0.08203 0.39453,0.08203c0.388,0 0.75792,-0.22647 0.91992,-0.60547l0.03711,-0.08594c0.222,-0.506 -0.00767,-1.09541 -0.51367,-1.31641c-0.1265,-0.0555 -0.25875,-0.08428 -0.38867,-0.08594zM69.83203,67.76953c-0.251,0.04913 -0.48417,0.19288 -0.63867,0.42188l-0.05859,0.08789c-0.306,0.46 -0.18166,1.08267 0.27734,1.38867c0.171,0.114 0.36369,0.16702 0.55469,0.16602c0.323,0 0.63903,-0.15631 0.83203,-0.44531l0.05469,-0.08008c0.308,-0.458 0.18652,-1.07967 -0.27148,-1.38867c-0.2295,-0.1535 -0.499,-0.19952 -0.75,-0.15039zM67.32617,71.03711c-0.264,0.01075 -0.5277,0.11891 -0.7207,0.31641c-0.391,0.391 -0.391,1.02306 0,1.41406c0.196,0.195 0.45103,0.29297 0.70703,0.29297c0.256,0 0.51203,-0.09797 0.70703,-0.29297l0.08008,-0.08008c0.386,-0.394 0.34812,-0.99386 -0.04687,-1.38086c-0.197,-0.1935 -0.46256,-0.28028 -0.72656,-0.26953z"></path></g></g></svg>