<svg xmlns="http://www.w3.org/2000/svg" xmlns:xlink="http://www.w3.org/1999/xlink" viewBox="0,0,256,256" width="64px" height="64px" fill-rule="nonzero"><g fill="#0a9a73" fill-rule="nonzero" stroke="none" strokeWidth="1" strokeLinecap="butt" strokeLinejoin="miter" stroke-miterlimit="10" stroke-dasharray="" stroke-dashoffset="0" font-family="none" font-weight="none" font-size="none" text-anchor="none" style="mix-blend-mode: normal"><g transform="scale(2,2)"><path d="M64,6c-34.7,0 -63,28.3 -63,63c0,15.7 5.69961,30.4 16.09961,42h-13.40039c-1.7,0 -3,1.3 -3,3c0,1.7 1.3,3 3,3h21.20117c1.7,0 3,-1.3 3,-3v-21.19922c0,-1.7 -1.3,-3 -3,-3c-1.7,0 -3,1.3 -3,3v14.59961c-9.6,-10.5 -14.90039,-24.00039 -14.90039,-38.40039c0,-31.4 25.6,-57 57,-57c11.3,0 22.2,3.3 31.5,9.5c1.4,0.9 3.19922,0.49922 4.19922,-0.80078c0.9,-1.4 0.50117,-3.19922 -0.79883,-4.19922c-10.4,-6.9 -22.40039,-10.5 -34.90039,-10.5zM111.96094,30.30469c-0.50449,-0.02812 -1.01094,0.06992 -1.46094,0.29492c-0.3,0.1 -0.60078,0.20039 -0.80078,0.40039c-1.3,1 -1.59961,2.89922 -0.59961,4.19922c1.9,2.6 3.59961,5.40039 5.09961,8.40039c0.6,1 1.60117,1.59961 2.70117,1.59961h0.19922h0.30078c0.4,0 0.89883,-0.09883 1.29883,-0.29883c1.5,-0.7 2.10078,-2.5 1.30078,-4c-1.6,-3.3 -3.60078,-6.40039 -5.80078,-9.40039c-0.5625,-0.75 -1.39746,-1.14844 -2.23828,-1.19531zM77,51c-4.4,0 -8,3.6 -8,8v6h-18c-4.4,0 -8,3.6 -8,8v46c0,4.4 3.6,8 8,8h68c4.4,0 8,-3.6 8,-8v-46c0,-4.4 -3.6,-8 -8,-8h-18v-6c0,-4.4 -3.6,-8 -8,-8zM77,57h16c1.1,0 2,0.9 2,2v6h-20v-6c0,-1.1 0.9,-2 2,-2zM51,71h8v50h-8c-1.1,0 -2,-0.9 -2,-2v-46c0,-1.1 0.9,-2 2,-2zM65,71h40v50h-40zM111,71h8c1.1,0 2,0.9 2,2v46c0,1.1 -0.9,2 -2,2h-8z"></path></g></g></svg>