<svg xmlns="http://www.w3.org/2000/svg" xmlns:xlink="http://www.w3.org/1999/xlink" viewBox="0,0,256,256" width="50px" height="50px" fill-rule="nonzero"><g fill="#0a9a73" fill-rule="nonzero" stroke="none" strokeWidth="1" strokeLinecap="butt" strokeLinejoin="miter" stroke-miterlimit="10" stroke-dasharray="" stroke-dashoffset="0" font-family="none" font-weight="none" font-size="none" text-anchor="none" style="mix-blend-mode: normal"><g transform="scale(5.12,5.12)"><path d="M22,5c-1.43813,0 -2.84394,0.14716 -4.19727,0.41992c-0.5415,0.10895 -0.89215,0.63624 -0.7832,1.17773c0.10895,0.5415 0.63624,0.89215 1.17773,0.7832c1.22667,-0.24724 2.50086,-0.38086 3.80273,-0.38086c10.51003,0 19,8.48997 19,19c0,3.30005 -0.84192,6.3887 -2.31445,9.08398c-1.95562,-1.30082 -3.99037,-2.64548 -4.53125,-2.97656c-1.01743,-0.62275 -2.15649,-0.33649 -3.16211,0.19531c-0.77328,0.40714 -2.75136,1.54112 -3.40625,1.91602c-0.5004,-0.32199 -2.16632,-1.44842 -5.76563,-5.04687c-3.60002,-3.59918 -4.72306,-5.26515 -5.04297,-5.76367c0.37548,-0.65527 1.51097,-2.63229 1.91797,-3.41016v0.00391c0.52817,-1.0011 0.83762,-2.1482 0.18555,-3.17578c-0.264,-0.41614 -1.43535,-2.19598 -2.62109,-3.99023c-1.18575,-1.79426 -2.30354,-3.48354 -2.60547,-3.90234v-0.00195c-0.40858,-0.56581 -1.0342,-0.88792 -1.73828,-0.94531c-0.70408,-0.05739 -1.48531,0.15181 -2.20313,0.65234h-0.00195c-0.62232,0.43493 -1.94408,1.48369 -3.18359,2.67383c-0.61976,0.59507 -1.20935,1.2173 -1.67187,1.83203c-0.46252,0.61473 -0.883,1.17546 -0.85547,2.03711c0.02353,0.72163 0.10257,2.89311 1.64648,6.18164c1.54391,3.28853 4.53712,7.79146 10.36523,13.62109c5.82963,5.83114 10.33091,8.82493 13.61914,10.36914c3.28823,1.54421 5.461,1.62297 6.18164,1.64648h0.00195c0.8616,0.02698 1.42084,-0.39282 2.03516,-0.85547c0.61432,-0.46265 1.23521,-1.05395 1.83008,-1.67383c1.18851,-1.23849 2.2359,-2.55678 2.67187,-3.18164v-0.00195c1.00091,-1.4267 0.85485,-3.13939 -0.30273,-3.95117c-0.15404,-0.10774 -1.12202,-0.74979 -1.69922,-1.13672c1.68285,-3.01884 2.65039,-6.49602 2.65039,-10.19922c0,-11.58997 -9.41003,-21 -21,-21zM11.73438,10.03125c0.21117,0.02811 0.3254,0.10906 0.29883,0.07227c0.13207,0.18319 1.37484,2.04274 2.55859,3.83398c1.18375,1.79124 2.39161,3.63307 2.59961,3.96094c-0.0061,-0.0096 0.06616,0.54108 -0.26562,1.16992l-0.00195,0.00195v0.00195c-0.38187,0.72983 -2.19727,3.9043 -2.19727,3.9043l-0.28906,0.50195l0.29297,0.5c0,0 1.36755,2.30215 5.67578,6.60938c4.30994,4.30893 6.60938,5.67773 6.60938,5.67773l0.5,0.29297l0.50391,-0.28711c0,0 3.17088,-1.81414 3.90625,-2.20117h0.00195c0.62438,-0.33019 1.17307,-0.26306 1.18164,-0.25781c0.40722,0.24926 3.18705,2.10421 5.36523,3.55469c0.00774,0.00532 0.01555,0.01053 0.02344,0.01562c0.9707,0.64645 2.27835,1.50509 2.40234,1.5918c-0.06006,-0.04212 0.3222,0.44111 -0.18555,1.16406l-0.00195,0.00195v0.00195c-0.31583,0.45293 -1.37729,1.79786 -2.47656,2.94336c-0.54964,0.57275 -1.11729,1.10505 -1.58984,1.46094c-0.47251,0.35569 -0.89663,0.44915 -0.76953,0.45313c-0.75036,-0.02448 -2.37321,-0.03724 -5.39648,-1.45703c-3.02327,-1.41979 -7.34732,-4.2638 -13.05469,-9.97266c-5.70588,-5.70737 -8.54916,-10.03292 -9.96875,-13.05664c-1.41959,-3.02372 -1.43256,-4.64611 -1.45703,-5.39648c0.00403,0.12615 0.09743,-0.29874 0.45313,-0.77149c0.35569,-0.47274 0.88832,-1.04004 1.46094,-1.58984c1.14479,-1.09918 2.48721,-2.16099 2.94141,-2.47851c0.35919,-0.25046 0.66773,-0.2742 0.87891,-0.24609zM25.06055,16c-1.801,0 -3.06055,1.14411 -3.06055,2.78711v0.02344h1.47266v-0.02344c0,-0.895 0.62006,-1.49805 1.53906,-1.49805c0.864,0 1.49805,0.56098 1.49805,1.33398c0,0.621 -0.29905,1.07792 -1.49805,2.29492l-2.92578,2.99219v1.08984h6.0957v-1.33203h-3.94336v-0.10352l1.83789,-1.84375c1.491,-1.473 1.97266,-2.25231 1.97266,-3.19531c0,-1.466 -1.25428,-2.52539 -2.98828,-2.52539zM33.28711,16.21875c-1.552,2.336 -2.78517,4.29014 -3.57617,5.74414v1.40039h4.28906v1.63672h1.50391v-1.63672h1.18555v-1.32812h-1.18555v-5.81641zM33.93945,17.49609h0.08398v4.57617h-2.85938v-0.08984c1.022,-1.801 1.93539,-3.24533 2.77539,-4.48633z"></path></g></g></svg>