<svg xmlns="http://www.w3.org/2000/svg" width="200" height="50" version="1.0" viewBox="0 0 150 37.5"><defs><clipPath id="a"><path d="M6 3.7h24.594v31.827H6Zm0 0"/></clipPath><clipPath id="b"><path d="M4.688 7H11v5H4.688Zm0 0"/></clipPath><clipPath id="c"><path d="M128.438 6.219h7.402v7.398h-7.403Zm0 0"/></clipPath></defs><g clip-path="url(#a)"><path fill="#0a9a73" d="m30.766 35.277-6.567-9.715 6.031-9.324h-4.523l-3.906 5.778-4.863-7.196c1.355-.254 2.386-.851 3.09-1.804.706-.946 1.062-2.102 1.062-3.457q0-1.68-.582-2.809a4.8 4.8 0 0 0-1.57-1.79 6.6 6.6 0 0 0-2.301-.944 13 13 0 0 0-2.778-.286H6.422v19.196h4.226v-7.672h2.09l6.668 10.309-6.562 9.714h5.07l3.895-6.011 3.886 6.011Zm-14.407-24.52q-.343.437-.851.638a4 4 0 0 1-1.156.246c-.422.023-.829.039-1.204.039h-2.5V7.313h2.762a9 9 0 0 1 1.168.082q.597.086 1.059.308c.312.152.562.379.758.664.203.29.296.676.296 1.168q.01.79-.332 1.223m0 0"/></g><g clip-path="url(#b)"><path fill="#d46460" d="M5.746 7.71a3.4 3.4 0 0 1 1.063-.308 8 8 0 0 1 1.164-.082h2.765v4.364h-2.5q-.57 0-1.203-.036a3.8 3.8 0 0 1-1.156-.246 1.95 1.95 0 0 1-.852-.64q-.34-.439-.34-1.223c0-.484.102-.875.297-1.168.204-.289.454-.508.762-.66m0 0"/></g><path fill="#d46460" d="M54.417 34.95h-18a4.43 4.43 0 0 1-2.266-.593 4.6 4.6 0 0 1-1.64-1.64 4.43 4.43 0 0 1-.594-2.267v-18h4.5v18h18ZM74.667 21.45v-9h4.5v18q0 1.236-.61 2.266a4.5 4.5 0 0 1-1.625 1.64 4.44 4.44 0 0 1-2.265.594h-18v-4.5h18v-4.5h-13.5a4.43 4.43 0 0 1-2.266-.593 4.6 4.6 0 0 1-1.64-1.64 4.43 4.43 0 0 1-.594-2.267v-9h4.5v9ZM103.917 12.45v4.5h-9v18h-4.5v-18h-9v-4.5ZM128.667 12.45v4.5h-18v4.5h18v4.5h-18v4.5h18v4.5h-18a4.43 4.43 0 0 1-2.266-.593 4.6 4.6 0 0 1-1.64-1.64 4.43 4.43 0 0 1-.594-2.267v-13.5c0-.82.195-1.578.594-2.265a4.5 4.5 0 0 1 1.64-1.625 4.37 4.37 0 0 1 2.266-.61Zm0 0"/><g clip-path="url(#c)"><path fill="#0a9a73" d="M132.602 9.203a.4.4 0 0 1-.082.25.36.36 0 0 1-.22.137c-.16.035-.26.055-.32.055h-.542v-.872H132q.34.002.469.114.134.111.133.316m3.304.75a3.734 3.734 0 1 1-7.468 0 3.734 3.734 0 0 1 7.468 0m-1.953 1.84-.531-1.023a1.3 1.3 0 0 0-.156-.227 1 1 0 0 0-.18-.188 1 1 0 0 0-.29-.132l-.167-.059.172-.039q.251-.058.398-.145a1 1 0 0 0 .352-.351q.124-.219.125-.52c0-.226-.055-.425-.164-.582a.83.83 0 0 0-.438-.328c-.183-.058-.457-.09-.812-.09h-1.899v3.684h1.075v-1.535h.152q.175-.001.316.097.105.075.227.31l.61 1.128Zm0 0"/></g></svg>